<?xml version="1.0" encoding="UTF-8" standalone="no"?><!DOCTYPE svg PUBLIC "-//W3C//DTD SVG 1.1//EN" "http://www.w3.org/Graphics/SVG/1.1/DTD/svg11.dtd"><svg width="2450px" height="370px" version="1.1" xmlns="http://www.w3.org/2000/svg" xmlns:xlink="http://www.w3.org/1999/xlink" xml:space="preserve" xmlns:serif="http://www.serif.com/" style="fill-rule:evenodd;clip-rule:evenodd;stroke-linejoin:round;stroke-miterlimit:2;"><g transform="matrix(1,0,0,1,-13616.67875,-8822.370833)"><g transform="matrix(4.166667,0,0,4.166667,9000,5062.5)"><g transform="matrix(1,0,0,1,1311.459,962.1999)"><path d="M0,-31C0,-29 1,-26 4,-23L7,-25C9,-26 10,-27 10,-28C11,-29 11,-30 11,-32C11,-33 11,-34 10,-35C9,-36 7,-37 6,-37C4,-37 3,-36 2,-35C1,-34 0,-33 0,-31M4,6C7,6 10,5 13,4L1,-10L-0,-10C-3,-7 -4,-5 -4,-2C-4,0 -3,2 -2,4C-0,5 2,6 4,6M-16,-1C-16,-4 -15,-7 -14,-9C-12,-12 -9,-14 -5,-17C-7,-20 -8,-22 -9,-24C-10,-26 -11,-28 -11,-31C-11,-35 -9,-39 -6,-42C-3,-45 1,-47 6,-47C10,-47 14,-45 17,-43C20,-40 21,-37 21,-33C21,-28 19,-23 14,-20L9,-16L20,-4C21,-7 22,-12 22,-15L33,-15C33,-8 31,-0 27,4L36,15L22,15L19,11C15,14 10,16 4,16C-2,16 -7,14 -11,11C-14,8 -16,4 -16,-1" style="fill:white;fill-rule:nonzero;"/></g></g><g transform="matrix(4.166667,0,0,4.166667,9000,5062.5)"><g transform="matrix(-1,0,0,1,2546.861,761.309)"><rect x="1251" y="154" width="44" height="10" style="fill:white;"/></g></g><g transform="matrix(4.166667,0,0,4.166667,9000,5062.5)"><g transform="matrix(-1,0,0,1,2546.861,814.081)"><rect x="1268" y="102" width="10" height="62" style="fill:white;"/></g></g><g transform="matrix(4.166667,0,0,4.166667,9000,5062.5)"><g transform="matrix(1,0,0,1,1376.6648,915.4343)"><path d="M0,63L-11,63C-21,63 -29,55 -29,45L-29,18C-29,8 -21,0 -11,0L0,0C10,0 18,8 18,18L18,20L7,20L7,18C7,14 4,10 0,10L-11,10C-16,10 -19,14 -19,18L-19,45C-19,49 -16,52 -11,52L0,52C4,52 7,49 7,45L7,37L-6,37L-6,26L13,26C15,26 18,28 18,31L18,45C18,55 10,63 0,63" style="fill:white;fill-rule:nonzero;"/></g></g><g transform="matrix(4.166667,0,0,4.166667,9000,5062.5)"><g transform="matrix(-1,0,0,1,3007.624,813.37)"><rect x="1499" y="102" width="10" height="62" style="fill:white;"/></g></g><g transform="matrix(4.166667,0,0,4.166667,9000,5062.5)"><g transform="matrix(1,0,0,1,1450.8306,915.4961)"><path d="M0,62L-31,62C-34,62 -36,60 -36,57L-36,0L-26,0L-26,52L0,52L0,62Z" style="fill:white;fill-rule:nonzero;"/></g></g><g transform="matrix(4.166667,0,0,4.166667,9000,5062.5)"><g transform="matrix(1,0,0,1,1492.4161,915.4961)"><path d="M0,62L-31,62C-34,62 -36,60 -36,57L-36,5C-36,2 -34,0 -31,0L0,0L0,10L-26,10L-26,52L0,52L0,62Z" style="fill:white;fill-rule:nonzero;"/></g></g><g transform="matrix(4.166667,0,0,4.166667,9000,5062.5)"><g transform="matrix(-1,0,0,1,2948.445,813.37)"><rect x="1461" y="128" width="26" height="10" style="fill:white;"/></g></g><g transform="matrix(4.166667,0,0,4.166667,9000,5062.5)"><g transform="matrix(1,0,0,1,1695.7656,915.4961)"><path d="M0,62L-31,62C-34,62 -36,60 -36,57L-36,5C-36,2 -34,0 -31,0L0,0L0,10L-26,10L-26,52L0,52L0,62Z" style="fill:white;fill-rule:nonzero;"/></g></g><g transform="matrix(4.166667,0,0,4.166667,9000,5062.5)"><g transform="matrix(-1,0,0,1,3355.145,813.37)"><rect x="1665" y="128" width="26" height="10" style="fill:white;"/></g></g><g transform="matrix(4.166667,0,0,4.166667,9000,5062.5)"><g transform="matrix(1,0,0,1,1541.198,915.4337)"><path d="M0,62L-26,62L-26,52L0,52C3,52 5,50 5,47L5,42C5,39 3,36 0,36L-10,36C-19,36 -26,29 -26,21L-26,16C-26,7 -19,0 -10,0L10,0L10,10L-10,10C-13,10 -16,13 -16,16L-16,21C-16,24 -13,26 -10,26L0,26C9,26 16,33 16,42L16,47C16,55 9,62 0,62" style="fill:white;fill-rule:nonzero;"/></g></g><g transform="matrix(4.166667,0,0,4.166667,9000,5062.5)"><g transform="matrix(1,0,0,1,1584.7654,915.6904)"><path d="M0,62L-4,62C-14,62 -23,54 -23,44L-23,0L-12,0L-12,44C-12,48 -9,52 -4,52L0,52C5,52 8,48 8,44L8,0L19,0L19,44C19,54 10,62 0,62" style="fill:white;fill-rule:nonzero;"/></g></g><g transform="matrix(4.166667,0,0,4.166667,9000,5062.5)"><g transform="matrix(-1,0,0,1,3229.83,839.361)"><rect x="1610" y="102" width="10" height="36" style="fill:white;"/></g></g><g transform="matrix(4.166667,0,0,4.166667,9000,5062.5)"><g transform="matrix(-0.414127,-0.910219,-0.910219,0.414127,1652.34979,940.261293)"><path d="M-35,14L5,14L5,24L-30,24L-35,14Z" style="fill:white;fill-rule:nonzero;"/></g></g><g transform="matrix(4.166667,0,0,4.166667,9000,5062.5)"><g transform="matrix(1,0,0,1,1620.1128,925.8917)"><path d="M0,16L15,16C18,16 21,13 21,9L21,6C21,3 18,-0 15,-0L0,-0L0,16ZM15,26L-5,26C-8,26 -10,24 -10,21L-10,-5C-10,-8 -8,-10 -5,-10L15,-10C24,-10 31,-3 31,6L31,9C31,19 24,26 15,26" style="fill:white;fill-rule:nonzero;"/></g></g><g transform="matrix(4.166667,0,0,4.166667,9000,5062.5)"><g transform="matrix(1,0,0,1,1196.7665,955.6279)"><path d="M0,-18C-5,-18 -9,-22 -9,-27C-9,-32 -5,-36 0,-36C5,-36 9,-32 9,-27C9,-22 5,-18 0,-18M-9,-53L-27,-53L-27,-9C-27,-4 -23,0 -18,0L0,0C5,0 9,4 9,9C9,14 5,18 0,18L-27,18L-27,36L-9,36C11,36 27,20 27,0L27,-18C27,-37 11,-53 -9,-53" style="fill:rgb(239,239,239);fill-rule:nonzero;"/></g></g><g transform="matrix(4.166667,0,0,4.166667,9000,5062.5)"><g transform="matrix(1,0,0,1,1161.2612,920.1222)"><path d="M0,53C-5,53 -9,49 -9,44L-9,9C-9,4 -5,0 0,0L9,0L9,-18L-44,-18L-44,0L-27,0L-27,36C-27,55 -11,71 9,71L9,53L0,53Z" style="fill:rgb(239,239,239);fill-rule:nonzero;"/></g></g><g transform="matrix(4.166667,0,0,4.166667,9000,5062.5)"><g transform="matrix(1,0,0,1,1152.3849,920.1222)"><path d="M0,53C-5,53 -9,49 -9,44L-9,9C-9,4 -5,0 0,0L9,0L9,-18L-36,-18C-40,-18 -44,-14 -44,-9C-44,-4 -40,0 -36,0L-27,0L-27,36C-27,55 -11,71 9,71L9,53L0,53Z" style="fill:white;fill-rule:nonzero;"/></g></g><g transform="matrix(4.166667,0,0,4.166667,9000,5062.5)"><g transform="matrix(1,0,0,1,1205.6428,955.6279)"><path d="M0,-18C-5,-18 -9,-22 -9,-27C-9,-32 -5,-36 0,-36C5,-36 9,-32 9,-27C9,-22 5,-18 0,-18M-9,-53L-27,-53L-27,-9C-27,-4 -23,0 -18,0L0,0C5,0 9,4 9,9C9,14 5,18 0,18L-27,18L-27,36L-9,36C11,36 27,20 27,0L27,-18C27,-37 11,-53 -9,-53" style="fill:white;fill-rule:nonzero;"/></g></g><g transform="matrix(4.166667,0,0,4.166667,9000,5062.5)"><g transform="matrix(-1,0,0,1,2331.4,742.491)"><rect x="1161" y="160" width="9" height="18" style="fill:rgb(239,239,239);"/></g></g><g transform="matrix(4.166667,0,0,4.166667,9000,5062.5)"><g transform="matrix(-1,0,0,1,2331.4,884.513)"><rect x="1161" y="89" width="9" height="18" style="fill:rgb(239,239,239);"/></g></g></g></svg>
